# xmcd CD database file
#
# Track frame offsets:
#	150
#	13118
#	23701
#	42090
#	59821
#	69504
#	89969
#	102825
#	113556
#	137593
#	157769
#	178380
#	200453
#	218225
#	234866
#	248546
#	264318
#	277580
#	288611
#	303237
#	321667
#	334520
#
# Disc length: 4705 seconds
#
# Revision: 1
# Processed by: cddbd v1.5.2PL0 Copyright (c) Steve Scherf et al.
# Submitted via: CDex 1.51
#
DISCID=38125f16
DTITLE=Various Artist - ZM-TPMH-Disc-8
DYEAR=1900
DGENRE=Blues
TTITLE0=Neil Diamond - Red Red Wine
TTITLE1=Elvis Presley - Return To Sender
TTITLE2=Billy Joel - River Of Dreams
TTITLE3=Michael Jackson - Rock With You
TTITLE4=Elvis Presley - Rock-A-Hula Baby
TTITLE5=Elton John - Rocket Man
TTITLE6=Michael Jackson - Rockin' Robin
TTITLE7=Roy Orbison - Running Scared
TTITLE8=Elton John - Sacrifice
TTITLE9=Elton John - Sad Songs (say so much)
TTITLE10=Rod Stewart - Sailing
TTITLE11=Elton John - Saturday Night's Alright For Fighting
TTITLE12=Neil Diamond - September Morn
TTITLE13=Tom Jones - Sexbomb (live version)
TTITLE14=Tom Jones - She's A Lady
TTITLE15=Billy Joel - She's Always A Woman 
TTITLE16=Billy Joel - She's Got A Way
TTITLE17=Elvis Presley - She's Not You
TTITLE18=Neil Diamond - Shilo
TTITLE19=Michael Jackson - Smooth Criminal
TTITLE20=Neil Diamond - Solitary Man
TTITLE21=Elton John - Something About The Way You Look Tonght
EXTD=
EXTT0=
EXTT1=
EXTT2=
EXTT3=
EXTT4=
EXTT5=
EXTT6=
EXTT7=
EXTT8=
EXTT9=
EXTT10=
EXTT11=
EXTT12=
EXTT13=
EXTT14=
EXTT15=
EXTT16=
EXTT17=
EXTT18=
EXTT19=
EXTT20=
EXTT21=
PLAYORDER=
